<?xml version="1.0" ?><svg data-name="Layer 1" id="Layer_1" viewBox="0 0 64 64" xmlns="http://www.w3.org/2000/svg"><defs><style>.cls-1{fill:#51ad42;}</style></defs><title/><path class="cls-1" d="M18,29a6.18,6.18,0,0,0,3.54,1.32,3.75,3.75,0,0,0,1.34-.24L23,30a5.44,5.44,0,0,0-.49,2A3.93,3.93,0,0,0,26,36c0,.19,0,.78,0,1a10.29,10.29,0,0,1-8,10,10.29,10.29,0,0,1-8-10c0-.21,0-.8,0-1A3.93,3.93,0,0,0,13.47,32,5.44,5.44,0,0,0,13,30l.14.07a3.75,3.75,0,0,0,1.34.24A6.18,6.18,0,0,0,18,29Z"/><path d="M29.73,18H27V15.84a2.91,2.91,0,0,0,2-2.75V8.91A2.92,2.92,0,0,0,26.09,6H9.91A2.92,2.92,0,0,0,7,8.91v4.18a2.91,2.91,0,0,0,2,2.75V18H6.27A3.28,3.28,0,0,0,3,21.27V54.73A3.28,3.28,0,0,0,6.27,58H29.73A3.28,3.28,0,0,0,33,54.73V21.27A3.28,3.28,0,0,0,29.73,18ZM5,26H31V50H5ZM27,8.91v4.18a.91.91,0,0,1-.91.91H24V8h2.09A.91.91,0,0,1,27,8.91ZM19,14V8h3v6Zm-5,0V8h3v6ZM9,8.91A.91.91,0,0,1,9.91,8H12v6H9.91A.91.91,0,0,1,9,13.09ZM11,16H25v2H11ZM6.27,20H29.73A1.27,1.27,0,0,1,31,21.27V24H5V21.27A1.27,1.27,0,0,1,6.27,20ZM29.73,56H6.27A1.27,1.27,0,0,1,5,54.73V52H31v2.73A1.27,1.27,0,0,1,29.73,56Z"/><path d="M21,37H19V35a1,1,0,0,0-2,0v2H15a1,1,0,0,0,0,2h2v2a1,1,0,0,0,2,0V39h2a1,1,0,0,0,0-2Z"/><path d="M41,46h8a3,3,0,0,0,0-6H41a3,3,0,0,0,0,6Zm9-3a1,1,0,0,1-1,1H46V42h3A1,1,0,0,1,50,43Zm-9-1h3v2H41a1,1,0,0,1,0-2Z"/><path d="M58,46H50a3,3,0,0,0,0,6h-6l.74-.77a3.14,3.14,0,0,0,0-4.32,3,3,0,0,0-4.27,0l-2.8,2.9h0l-2.85,3a3.14,3.14,0,0,0,0,4.32,2.95,2.95,0,0,0,4.26,0l1.88-2A3,3,0,0,0,44,58h8a3,3,0,0,0,0-6h6a3,3,0,0,0,0-6ZM42,48.3a1,1,0,0,1,.7-.3,1,1,0,0,1,.69.3,1.12,1.12,0,0,1,0,1.54L41.24,52,39.8,50.54Zm-4.27,7.4a1,1,0,0,1-1.38,0h0a1.12,1.12,0,0,1,0-1.54L38.41,52l1.44,1.49ZM43,55a1,1,0,0,1,1-1h3v2H44A1,1,0,0,1,43,55Zm10,0a1,1,0,0,1-1,1H49V54h3A1,1,0,0,1,53,55Zm-3-5a1,1,0,0,1,0-2h3v2Zm8,0H55V48h3a1,1,0,0,1,0,2Z"/><path d="M42,35a2.6,2.6,0,0,1,2,2,1,1,0,0,0,2,0,2.6,2.6,0,0,1,2-2,1,1,0,0,0,0-2,2.6,2.6,0,0,1-2-2,1,1,0,0,0-2,0,2.6,2.6,0,0,1-2,2,1,1,0,0,0,0,2Zm3-1.62a6,6,0,0,0,.62.62,6,6,0,0,0-.62.62,6,6,0,0,0-.62-.62A6,6,0,0,0,45,33.38Z"/><path d="M54,41a2.6,2.6,0,0,1,2,2,1,1,0,0,0,2,0,2.6,2.6,0,0,1,2-2,1,1,0,0,0,0-2,2.6,2.6,0,0,1-2-2,1,1,0,0,0-2,0,2.6,2.6,0,0,1-2,2,1,1,0,0,0,0,2Zm3-1.62a6,6,0,0,0,.62.62,6,6,0,0,0-.62.62,6,6,0,0,0-.62-.62A6,6,0,0,0,57,39.38Z"/></svg>